#!OML:ASF H:\ManfredETheater\Project 1\Capture day 1\Session 1\subject.ASF
:FULLY-SPECIFIED
:DEGREES
46
root -11.1629 15.6849 16.7808 -168.852 -4.33044 -192.181
lowerback 18.5367 -1.34872 -4.66399
upperback 0.768617 -3.14624 -1.13332
thorax -9.39774 -1.43279 2.25543
lowerneck -18.3383 -4.97158 -6.03114
upperneck 1.71821 -5.94745 3.70408
head 3.67991 -2.97579 1.59286
rclavicle -1.98785e-014 -1.59028e-015
rhumerus -62.602 -9.36575 -80.1136
rradius 65.7554
rwrist -21.9298
rhand -29.4633 6.1614
rfingers 7.12502
rthumb -2.79913 -23.8
lclavicle -1.98785e-014 -1.59028e-015
lhumerus -44.1429 -1.25302 92.2015
lradius 99.1727
lwrist 16.2308
lhand -22.9727 -10.8619
lfingers 7.12502
lthumb 3.46951 19.0896
rfemur -53.4893 -7.0254 32.9558
rtibia 56.258
rfoot -13.1715 -15.6939
rtoes 9.18819
lfemur -17.0814 -4.38166 -10.8623
ltibia 90.4137
lfoot -3.3579 -4.78591
ltoes -4.56437
47
root -11.101 15.6346 16.3015 -169.272 -4.44348 -191.107
lowerback 18.8208 -1.31695 -3.98529
upperback 0.890991 -2.94501 -0.872191
thorax -9.45114 -1.35995 2.11299
lowerneck -18.0399 -5.2579 -6.15336
upperneck 1.55594 -6.3283 3.91442
head 3.61363 -3.15574 1.65067
rclavicle -3.61788e-014 1.74931e-014
rhumerus -60.1964 -8.95281 -81.1149
rradius 65.5716
rwrist -21.635
rhand -29.9735 6.02659
rfingers 7.12502
rthumb -3.2919 -23.9277
lclavicle -3.61788e-014 1.74931e-014
lhumerus -44.7077 0.356647 91.2443
lradius 96.0788
lwrist 16.1107
lhand -23.5999 -10.9984
lfingers 7.12502
lthumb 2.86372 18.9621
rfemur -51.8924 -6.51945 34.0971
rtibia 57.878
rfoot -15.3805 -16.9353
rtoes 7.22445
lfemur -20.9633 -3.48064 -8.55694
ltibia 93.1241
lfoot -4.9816 -3.68959
ltoes -4.11342
48
root -11.0395 15.5901 15.8246 -169.585 -4.63458 -190.195
lowerback 18.9782 -1.33043 -3.45297
upperback 0.978235 -2.82828 -0.627274
thorax -9.45999 -1.32201 2.0519
lowerneck -17.7209 -5.54967 -6.29949
upperneck 1.50251 -6.70563 4.12364
head 3.57992 -3.33116 1.71168
rclavicle 5.96354e-015 3.49861e-014
rhumerus -57.9376 -8.2467 -82.1346
rradius 65.7918
rwrist -20.9604
rhand -30.4307 6.07038
rfingers 7.12502
rthumb -3.73339 -23.8767
lclavicle 5.96354e-015 3.49861e-014
lhumerus -45.4415 1.71588 90.3615
lradius 93.3685
lwrist 15.8589
lhand -24.203 -11.1206
lfingers 7.12502
lthumb 2.28134 18.8469
rfemur -50.234 -6.3218 35.179
rtibia 59.1399
rfoot -17.5497 -17.9599
rtoes 5.40836
lfemur -25.133 -2.70179 -6.66817
ltibia 95.3039
lfoot -6.47842 -2.65704
ltoes -3.87613
49
root -10.9771 15.5526 15.3478 -169.821 -4.90289 -189.493
lowerback 19.0401 -1.37289 -3.10882
upperback 1.03347 -2.78948 -0.418579
thorax -9.43966 -1.31404 2.07482
lowerneck -17.3872 -5.85965 -6.47944
upperneck 1.57668 -7.09583 4.35648
head 3.58761 -3.50828 1.78286
rclavicle 1.43125e-014 3.10104e-014
rhumerus -55.9035 -7.2815 -83.1342
rradius 66.4798
rwrist -19.988
rhand -30.7995 6.29175
rfingers 7.12502
rthumb -4.08951 -23.6487
lclavicle 1.43125e-014 3.10104e-014
lhumerus -46.3508 2.69758 89.6057
lradius 91.1665
lwrist 15.5302
lhand -24.6565 -11.2469
lfingers 7.12502
lthumb 1.84332 18.7248
rfemur -48.493 -6.42754 36.118
rtibia 60.0698
rfoot -19.639 -18.837
rtoes 3.60912
lfemur -29.4592 -2.09594 -5.28509
ltibia 96.8672
lfoot -7.80666 -1.73687
ltoes -3.91808
